<mxfile host="app.diagrams.net" modified="2024-02-01T09:17:21.798Z" agent="Mozilla/5.0 (Windows NT 10.0; Win64; x64) AppleWebKit/537.36 (KHTML, like Gecko) Chrome/121.0.0.0 Safari/537.36" etag="7ZSZ2vDETAYqN2QI6lnF" version="23.1.0" type="github">
  <diagram id="6a731a19-8d31-9384-78a2-239565b7b9f0" name="Iteration">
    <mxGraphModel dx="1648" dy="866" grid="1" gridSize="10" guides="1" tooltips="1" connect="1" arrows="1" fold="1" page="1" pageScale="1" pageWidth="1169" pageHeight="827" background="none" math="0" shadow="0">
      <root>
        <mxCell id="0" />
        <mxCell id="1" parent="0" />
        <mxCell id="2" value="&lt;font style=&quot;font-size: 18px;&quot;&gt;start iteration&lt;/font&gt;" style="shape=mxgraph.flowchart.terminator;strokeWidth=2;gradientColor=none;gradientDirection=north;fontStyle=0;html=1;" parent="1" vertex="1">
          <mxGeometry x="220" y="60" width="200" height="30" as="geometry" />
        </mxCell>
        <mxCell id="3" value="&lt;font style=&quot;font-size: 18px;&quot;&gt;get next() &lt;br&gt;element&lt;/font&gt;" style="shape=mxgraph.flowchart.data;strokeWidth=2;gradientColor=none;gradientDirection=north;fontStyle=0;html=1;" parent="1" vertex="1">
          <mxGeometry x="240.5" y="130" width="159" height="80" as="geometry" />
        </mxCell>
        <mxCell id="4" value="&lt;font style=&quot;font-size: 18px;&quot;&gt;execute&amp;nbsp;the code&lt;br&gt;on the &lt;br&gt;next() element&lt;/font&gt;" style="shape=mxgraph.flowchart.data;strokeWidth=2;gradientColor=none;gradientDirection=north;fontStyle=0;html=1;align=center;" parent="1" vertex="1">
          <mxGeometry x="200" y="420" width="240" height="100" as="geometry" />
        </mxCell>
        <mxCell id="6" value="&lt;font style=&quot;font-size: 18px;&quot;&gt;Successive &lt;br&gt;element exists?&lt;/font&gt;" style="shape=mxgraph.flowchart.decision;strokeWidth=2;gradientColor=none;gradientDirection=north;fontStyle=0;html=1;" parent="1" vertex="1">
          <mxGeometry x="205" y="251" width="230" height="109" as="geometry" />
        </mxCell>
        <mxCell id="7" style="fontStyle=1;strokeColor=#003366;strokeWidth=1;html=1;" parent="1" source="2" target="3" edge="1">
          <mxGeometry relative="1" as="geometry" />
        </mxCell>
        <mxCell id="8" style="fontStyle=1;strokeColor=#003366;strokeWidth=1;html=1;" parent="1" source="3" edge="1">
          <mxGeometry relative="1" as="geometry">
            <mxPoint x="320" y="250" as="targetPoint" />
          </mxGeometry>
        </mxCell>
        <mxCell id="11" value="&lt;font style=&quot;font-size: 18px;&quot;&gt;yes&lt;/font&gt;" style="text;fontStyle=0;html=1;strokeColor=none;gradientColor=none;fillColor=none;strokeWidth=2;" parent="1" vertex="1">
          <mxGeometry x="321" y="370" width="40" height="24" as="geometry" />
        </mxCell>
        <mxCell id="12" value="" style="edgeStyle=elbowEdgeStyle;elbow=horizontal;fontColor=#001933;fontStyle=1;strokeColor=#003366;strokeWidth=1;html=1;" parent="1" edge="1">
          <mxGeometry width="100" height="100" as="geometry">
            <mxPoint x="319.5" y="360" as="sourcePoint" />
            <mxPoint x="320" y="420" as="targetPoint" />
            <Array as="points">
              <mxPoint x="319.5" y="440" />
            </Array>
          </mxGeometry>
        </mxCell>
        <mxCell id="14" value="&lt;font style=&quot;font-size: 18px;&quot;&gt;no&lt;/font&gt;" style="text;fontStyle=0;html=1;strokeColor=none;gradientColor=none;fillColor=none;strokeWidth=2;align=center;" parent="1" vertex="1">
          <mxGeometry x="450" y="270.5" width="40" height="26" as="geometry" />
        </mxCell>
        <mxCell id="16" value="" style="edgeStyle=elbowEdgeStyle;elbow=horizontal;exitX=0.905;exitY=0.5;exitPerimeter=0;fontStyle=1;strokeColor=#003366;strokeWidth=1;html=1;entryX=0.095;entryY=0.5;entryDx=0;entryDy=0;entryPerimeter=0;" parent="1" target="RCTrfH0nZJPxPgGi1czD-55" edge="1">
          <mxGeometry width="100" height="100" as="geometry">
            <mxPoint x="434.995" y="305" as="sourcePoint" />
            <mxPoint x="530.6" y="305" as="targetPoint" />
          </mxGeometry>
        </mxCell>
        <mxCell id="54" value="" style="edgeStyle=elbowEdgeStyle;elbow=horizontal;fontStyle=1;strokeColor=#003366;strokeWidth=1;html=1;exitX=0.095;exitY=0.5;exitDx=0;exitDy=0;exitPerimeter=0;entryX=0;entryY=0.5;entryDx=0;entryDy=0;entryPerimeter=0;" parent="1" source="4" target="6" edge="1">
          <mxGeometry width="100" height="100" as="geometry">
            <mxPoint x="230" y="445" as="sourcePoint" />
            <mxPoint x="240" y="290" as="targetPoint" />
            <Array as="points">
              <mxPoint x="120" y="970" />
            </Array>
          </mxGeometry>
        </mxCell>
        <mxCell id="RCTrfH0nZJPxPgGi1czD-55" value="&lt;font style=&quot;font-size: 18px;&quot;&gt;exit from &lt;br&gt;the iteration&lt;/font&gt;" style="shape=mxgraph.flowchart.data;strokeWidth=2;gradientColor=none;gradientDirection=north;fontStyle=0;html=1;" vertex="1" parent="1">
          <mxGeometry x="505" y="270.5" width="150" height="70" as="geometry" />
        </mxCell>
        <mxCell id="RCTrfH0nZJPxPgGi1czD-59" value="" style="edgeStyle=elbowEdgeStyle;elbow=horizontal;fontStyle=1;strokeColor=#003366;strokeWidth=1;html=1;" edge="1" parent="1">
          <mxGeometry width="100" height="100" as="geometry">
            <mxPoint x="579.5" y="340.5" as="sourcePoint" />
            <mxPoint x="580" y="380.5" as="targetPoint" />
          </mxGeometry>
        </mxCell>
        <mxCell id="RCTrfH0nZJPxPgGi1czD-60" value="&lt;font style=&quot;font-size: 18px;&quot;&gt;end&lt;/font&gt;" style="shape=mxgraph.flowchart.terminator;strokeWidth=2;gradientColor=none;gradientDirection=north;fontStyle=0;html=1;" vertex="1" parent="1">
          <mxGeometry x="520" y="384" width="120" height="30" as="geometry" />
        </mxCell>
      </root>
    </mxGraphModel>
  </diagram>
</mxfile>
